<svg width="75" height="80" viewBox="0 0 75 80" fill="none" xmlns="http://www.w3.org/2000/svg">
<g opacity="0.75">
<path fill-rule="evenodd" clip-rule="evenodd" d="M71.598 24.4166H42.5531C58.7402 17.2488 60.034 12.7273 59.4375 10.1984C58.0758 6.08104 52.7672 2.90182 47.7164 4.58078C41.1902 6.75117 39.3527 15.3735 37.5867 21.6062C35.332 15.2997 33.1523 7.25403 28.0523 3.17818C26.5746 1.99585 24.4254 0.825976 21.2988 1.07117C16.5809 1.44104 9.81211 6.66286 12.559 12.48C15.1969 18.0675 23.9109 21.599 29.6426 24.4166H3.37383C1.51588 24.4183 0.00837978 25.7502 0 27.3974V39.1605C0.00837978 40.8077 1.51588 42.1396 3.37383 42.1413H3.69492V80H71.4773V42.1413H71.598C73.4565 42.1402 74.9647 40.8081 74.973 39.1605V27.3974C74.9647 25.7498 73.4565 24.4178 71.598 24.4166ZM49.7027 7.21455C52.1672 6.89247 55.541 8.56416 55.8609 10.5486C56.3215 13.412 51.8766 16.0083 49.9008 17.2197C46.9441 19.0317 44.1258 19.9657 41.3613 21.4327C42.3973 17.599 44.3484 7.91481 49.7027 7.21455V7.21455ZM22.8879 17.5709C20.2805 16.0281 15.2191 12.9673 15.341 9.49714C15.4723 5.76208 22.0711 2.67117 25.6699 5.45974C30.1887 8.96208 32.3648 16.9974 34.0125 22.6618C30.2051 21.0629 26.5969 19.7652 22.8879 17.5709V17.5709ZM29.8863 76.9101H7.19063V42.1413H29.8875V76.9101H29.8863ZM29.8863 38.986H3.56953V27.5719H29.8863V38.986V38.986ZM41.7891 38.986V76.9112H33.382V27.5719H41.7891V38.986ZM67.9816 76.9101H45.2859V42.1413H67.9816V76.9101V76.9101ZM71.4035 38.986H45.2859V27.5719H71.4035V38.986V38.986Z" fill="#81B3D2"/>
</g>
</svg>
